<?xml version="1.0" encoding="utf-8"?>
<svg id="master-artboard" viewBox="0 0 64 64" version="1.1" xmlns="http://www.w3.org/2000/svg" x="0px" y="0px" style="enable-background:new 0 0 1400 980;" width="64px" height="64px"><defs><style id="ee-google-fonts">@import url(https://fonts.googleapis.com/css?family=Electrolize:400);</style></defs><rect id="ee-background" x="0" y="0" width="64" height="64" style="fill: white; fill-opacity: 1; pointer-events: none;"/>








































<path d="M 5.53000020980835 0.10000038146972656 L 6.949999809265137 0.10000038146972656 L 6.949999809265137 10.470000267028809 C 6.949999809265137 10.809999465942383 6.816666603088379 11.09333324432373 6.550000190734863 11.319999694824219 L 6.139999866485596 11.65999984741211 C 5.866666793823242 11.886666297912598 5.5933332443237305 12 5.320000171661377 12 L 2.2300000190734863 12 C 1.9566667079925537 12 1.6833332777023315 11.886666297912598 1.409999966621399 11.65999984741211 L 1 11.319999694824219 C 0.7333333492279053 11.09333324432373 0.6000000238418579 10.809999465942383 0.6000000238418579 10.470000267028809 L 0.6000000238418579 9.279999732971191 L 2.0199999809265137 9.279999732971191 L 2.0199999809265137 10.109999656677246 C 2.0199999809265137 10.283332824707031 2.0299999713897705 10.393333435058594 2.049999952316284 10.440000534057617 C 2.06333327293396 10.49333381652832 2.123333215713501 10.559999465942383 2.2300000190734863 10.640000343322754 C 2.3299999237060547 10.720000267028809 2.4100000858306885 10.766666412353516 2.4700000286102295 10.779999732971191 C 2.5233333110809326 10.800000190734863 2.6533334255218506 10.809999465942383 2.859999895095825 10.809999465942383 L 4.690000057220459 10.809999465942383 C 4.896666526794434 10.809999465942383 5.026666641235352 10.800000190734863 5.079999923706055 10.779999732971191 C 5.139999866485596 10.766666412353516 5.21999979019165 10.720000267028809 5.320000171661377 10.640000343322754 C 5.420000076293945 10.559999465942383 5.480000019073486 10.49333381652832 5.5 10.440000534057617 C 5.519999980926514 10.393333435058594 5.53000020980835 10.283332824707031 5.53000020980835 10.109999656677246 L 5.53000020980835 0.10000038146972656 ZM 11.712947845458984 1.119999885559082 L 11.662947654724121 1.140000343322754 C 11.742947578430176 1.4066667556762695 11.782947540283203 1.676666259765625 11.782947540283203 1.9499998092651367 L 11.782947540283203 12 L 10.352947235107422 12 L 10.352947235107422 0.10000038146972656 L 12.662947654724121 0.10000038146972656 L 16.302947998046875 9.600000381469727 C 16.369613647460938 9.793333053588867 16.40294647216797 9.953332901000977 16.40294647216797 10.079999923706055 L 16.47294807434082 10.079999923706055 C 16.47294807434082 9.953332901000977 16.50628089904785 9.793333053588867 16.572948455810547 9.600000381469727 L 20.232948303222656 0.10000038146972656 L 22.522947311401367 0.10000038146972656 L 22.522947311401367 12 L 21.092947006225586 12 L 21.092947006225586 1.9499998092651367 C 21.092947006225586 1.676666259765625 21.132946014404297 1.4066667556762695 21.212947845458984 1.140000343322754 L 21.162948608398438 1.119999885559082 L 16.982948303222656 12 L 15.89294719696045 12 C 15.372947692871094 10.720000267028809 14.876280784606934 9.479999542236328 14.402947425842285 8.279999732971191 C 13.936281204223633 7.073333263397217 13.549613952636719 6.066666603088379 13.242947578430176 5.260000228881836 C 12.936281204223633 4.446666717529297 12.669614791870117 3.7333335876464844 12.442947387695312 3.119999885559082 C 12.216280937194824 2.5 12.039613723754883 2.020000457763672 11.912947654724121 1.6800003051757812 C 11.792947769165039 1.3400001525878906 11.726280212402344 1.1533336639404297 11.712947845458984 1.119999885559082 Z" transform="matrix(2.5347213745117188, 0, 0, 2.5347213745117188, 2.7042133808135986, 16.62131690979004)" style="fill: rgb(255, 66, 79); white-space: pre; color: rgb(51, 51, 51);"/><g transform="matrix(0.12948207557201385, 0, 0, 0.12948207557201385, 20.123462206610412, -10.045628735825069)"><g transform="matrix(1, 0, 0, 1, 2.842170943040401e-14, -1.4210854715202004e-14)"><g transform="matrix(1, 0, 0, 1, 2.842170943040401e-14, -1.4210854715202004e-14)">
	
		<path d="M 278.100006 170.699997 H 289.900006 V 174.899997 H 278.100006 V 170.699997 Z" transform="matrix(0.9761 0.2174 -0.2174 0.9761 44.3671 -57.6017)" class="st17" style="fill: rgb(255, 230, 115);"/>
</g><g transform="matrix(1, 0, 0, 1, 2.842170943040401e-14, -1.4210854715202004e-14)">
	<path class="st21" d="M280.3,146.5c0,0-12.6,3-16.1,20.3c0,0,6.2-3.7,13.2-2.1" style="fill: rgb(245, 160, 0);"/>
</g><g transform="matrix(1, 0, 0, 1, 2.842170943040401e-14, -1.4210854715202004e-14)">
	<path class="st21" d="M297.6,150.4c0,0,10,8.1,5.9,25.2c0,0-4.1-6-11-7.5" style="fill: rgb(245, 160, 0);"/>
</g><g transform="matrix(1, 0, 0, 1, 2.842170943040401e-14, -1.4210854715202004e-14)">
	<path class="st3" d="M296.9,113.8c0,0-14.1,7-18.2,25.4c-4.1,18.4-3.7,31.3-3.7,31.3l8.8,2l8.8,2c0,0,5.8-11.5,9.9-29.9&#10;&#9;&#9;C306.6,126.1,296.9,113.8,296.9,113.8z" style="fill: rgb(250, 116, 52);"/>
</g><g transform="matrix(1, 0, 0, 1, 2.842170943040401e-14, -1.4210854715202004e-14)">
	<path class="st17" d="M303.1,129.5l-9.2-2.1l-9.2-2.1c-2.4,3.6-4.7,8.2-5.9,13.9c-1.1,4.9-1.9,9.4-2.4,13.4l11.4,2.5l11.4,2.5&#10;&#9;&#9;c1.2-3.8,2.4-8.2,3.5-13.1C303.8,138.9,303.7,133.8,303.1,129.5z" style="fill: rgb(255, 230, 115);"/>
</g><g transform="matrix(1, 0, 0, 1, 2.842170943040401e-14, -1.4210854715202004e-14)">
	<path class="st21" d="M302.2,125.3l-7.5-1.7l-7.5-1.7c-2.1,2.4-4.1,5.5-5.8,9.2l11.1,2.5l11.1,2.5&#10;&#9;&#9;C303.6,132.1,303,128.4,302.2,125.3z" style="fill: rgb(245, 160, 0);"/>
</g><g class="st14" transform="matrix(1, 0, 0, 1, 2.842170943040401e-14, -1.4210854715202004e-14)" style="opacity: 0.1;">
	<path class="st22" d="M301.2,149.8c0.1-0.5,0.3-1.1,0.4-1.6c0,0,0-0.1,0-0.1c0.1-0.5,0.3-1.1,0.4-1.6c0,0,0-0.1,0-0.1&#10;&#9;&#9;c0.1-0.6,0.3-1.2,0.4-1.8c0.1-0.7,0.3-1.3,0.4-1.9c0-0.2,0.1-0.4,0.1-0.6c0.1-0.5,0.1-0.9,0.2-1.4c0-0.2,0-0.4,0.1-0.6&#10;&#9;&#9;c0-0.5,0.1-0.9,0.1-1.3c0-0.2,0-0.3,0-0.5c0-0.6,0.1-1.1,0.1-1.7c0,0,0,0,0-0.1c0-0.1,0-0.2,0-0.4l0,0c0,0,0-0.1,0-0.1&#10;&#9;&#9;c0-0.5,0-0.9,0-1.3c0-0.1,0-0.1,0-0.2c0-0.5,0-1-0.1-1.5c0-0.1,0-0.2,0-0.3c0-0.5-0.1-0.9-0.1-1.4c0-0.1,0-0.2,0-0.3&#10;&#9;&#9;c-1.2-10.7-6.4-17.2-6.4-17.2s0,0-0.1,0l-2.2,9.8l-0.8,3.8l-1.4,6.3l-4.8,21.5l-3.8,17.4l8.8,2&#10;&#9;&#9;C292.6,174.5,297.3,165.2,301.2,149.8C301.2,149.9,301.2,149.9,301.2,149.8z" style="fill: rgb(29, 29, 27);"/>
</g><g transform="matrix(1, 0, 0, 1, 2.842170943040401e-14, -1.4210854715202004e-14)">
	<g>
		<g>
			<path class="st8" d="M296.5,145.3c-0.8,3.5-4.3,5.8-7.8,5c-3.5-0.8-5.7-4.3-5-7.8c0.8-3.5,4.3-5.8,7.8-5&#10;&#9;&#9;&#9;&#9;C295,138.3,297.3,141.8,296.5,145.3z" style="fill: rgb(154, 84, 72);"/>
		</g>
	</g>
	<g>
		<g>
			<path class="st8" d="M295.3,144.4c-0.7,3.1-3.7,5.1-6.8,4.4c-3.1-0.7-5-3.7-4.4-6.8c0.7-3.1,3.7-5.1,6.8-4.4&#10;&#9;&#9;&#9;&#9;C294,138.2,296,141.3,295.3,144.4z" style="fill: rgb(154, 84, 72);"/>
		</g>
	</g>
	<g>
		<g>
			<path class="st8" d="M288.6,150.8c-3.7-0.8-6.1-4.6-5.3-8.3c0.8-3.8,4.6-6.2,8.3-5.3l0,0c3.7,0.8,6.1,4.6,5.3,8.3&#10;&#9;&#9;&#9;&#9;C296.1,149.2,292.4,151.6,288.6,150.8L288.6,150.8z M291.4,138c-3.3-0.7-6.5,1.4-7.3,4.7c-0.7,3.3,1.4,6.6,4.6,7.3l0,0&#10;&#9;&#9;&#9;&#9;c3.3,0.7,6.5-1.4,7.3-4.7C296.8,141.9,294.7,138.7,291.4,138z" style="fill: rgb(154, 84, 72);"/>
		</g>
	</g>
	<g>
		<g>
			
				<path d="M 291.300012 141 A 1.6 1.6 0 0 1 289.700012 142.6 A 1.6 1.6 0 0 1 288.100012 141 A 1.6 1.6 0 0 1 289.700012 139.4 A 1.6 1.6 0 0 1 291.300012 141 Z" transform="matrix(0.9765 0.2157 -0.2157 0.9765 37.2356 -59.1635)" class="st8" style="fill: rgb(154, 84, 72);"/>
		</g>
	</g>
	<g>
		<g>
			<path d="M 287.8 141.899994 A 0.8 0.8 0 0 1 287 142.699994 A 0.8 0.8 0 0 1 286.2 141.899994 A 0.8 0.8 0 0 1 287 141.099994 A 0.8 0.8 0 0 1 287.8 141.899994 Z" class="st8" style="fill: rgb(154, 84, 72);"/>
		</g>
	</g>
</g><g transform="matrix(1, 0, 0, 1, 2.842170943040401e-14, -1.4210854715202004e-14)">
	<g>
		<path class="st23" d="M279.1,194c0,0,16-15,3.9-17.6C270.9,173.7,279.1,194,279.1,194z" style="fill: rgb(241, 137, 6);"/>
	</g>
</g><g transform="matrix(1, 0, 0, 1, 2.842170943040401e-14, -1.4210854715202004e-14)">
	<g>
		<path class="st17" d="M280.3,188.5c0,0,10.3-10.5,2.7-12.2C275.4,174.7,280.3,188.5,280.3,188.5z" style="fill: rgb(255, 230, 115);"/>
	</g>
</g></g></g></svg>